<mxfile host="Electron" modified="2023-09-26T02:43:14.462Z" agent="Mozilla/5.0 (Macintosh; Intel Mac OS X 10_15_7) AppleWebKit/537.36 (KHTML, like Gecko) draw.io/21.7.5 Chrome/114.0.5735.289 Electron/25.8.1 Safari/537.36" etag="HEq7mNy0lx0U4xNWr-DZ" version="21.7.5" type="device">
  <diagram id="C5RBs43oDa-KdzZeNtuy" name="Page-1">
    <mxGraphModel dx="901" dy="645" grid="1" gridSize="10" guides="1" tooltips="1" connect="1" arrows="1" fold="1" page="1" pageScale="1" pageWidth="827" pageHeight="1169" math="0" shadow="0">
      <root>
        <mxCell id="WIyWlLk6GJQsqaUBKTNV-0" />
        <mxCell id="WIyWlLk6GJQsqaUBKTNV-1" parent="WIyWlLk6GJQsqaUBKTNV-0" />
        <mxCell id="0dpk0A-GW5sekWKEtVt2-33" value="" style="edgeStyle=orthogonalEdgeStyle;rounded=0;orthogonalLoop=1;jettySize=auto;html=1;" edge="1" parent="WIyWlLk6GJQsqaUBKTNV-1" source="WIyWlLk6GJQsqaUBKTNV-3" target="0dpk0A-GW5sekWKEtVt2-1">
          <mxGeometry relative="1" as="geometry" />
        </mxCell>
        <mxCell id="WIyWlLk6GJQsqaUBKTNV-3" value="Movie Details" style="rounded=1;whiteSpace=wrap;html=1;fontSize=12;glass=0;strokeWidth=1;shadow=0;" parent="WIyWlLk6GJQsqaUBKTNV-1" vertex="1">
          <mxGeometry x="290" y="80" width="120" height="40" as="geometry" />
        </mxCell>
        <mxCell id="0dpk0A-GW5sekWKEtVt2-0" value="&lt;span id=&quot;docs-internal-guid-471acc77-7fff-ed85-bc66-30103a5f6fd2&quot;&gt;&lt;/span&gt;&lt;span id=&quot;docs-internal-guid-6b510a21-7fff-43b4-50d8-6ca1a9317572&quot;&gt;&lt;/span&gt;&lt;b&gt;As a User I want to receive information on Directors&lt;/b&gt;" style="text;html=1;strokeColor=none;fillColor=none;align=center;verticalAlign=middle;whiteSpace=wrap;rounded=0;" vertex="1" parent="WIyWlLk6GJQsqaUBKTNV-1">
          <mxGeometry x="190" y="20" width="320" height="30" as="geometry" />
        </mxCell>
        <mxCell id="0dpk0A-GW5sekWKEtVt2-35" value="" style="edgeStyle=orthogonalEdgeStyle;rounded=0;orthogonalLoop=1;jettySize=auto;html=1;" edge="1" parent="WIyWlLk6GJQsqaUBKTNV-1" source="0dpk0A-GW5sekWKEtVt2-1" target="0dpk0A-GW5sekWKEtVt2-17">
          <mxGeometry relative="1" as="geometry" />
        </mxCell>
        <mxCell id="0dpk0A-GW5sekWKEtVt2-36" value="Yes" style="edgeLabel;html=1;align=center;verticalAlign=middle;resizable=0;points=[];" vertex="1" connectable="0" parent="0dpk0A-GW5sekWKEtVt2-35">
          <mxGeometry x="-0.1" y="1" relative="1" as="geometry">
            <mxPoint as="offset" />
          </mxGeometry>
        </mxCell>
        <mxCell id="0dpk0A-GW5sekWKEtVt2-1" value="Director&lt;br&gt;button&lt;br&gt;clicked ?" style="rhombus;whiteSpace=wrap;html=1;shadow=0;fontFamily=Helvetica;fontSize=12;align=center;strokeWidth=1;spacing=6;spacingTop=-4;" vertex="1" parent="WIyWlLk6GJQsqaUBKTNV-1">
          <mxGeometry x="300" y="170" width="100" height="80" as="geometry" />
        </mxCell>
        <mxCell id="0dpk0A-GW5sekWKEtVt2-14" value="Show Director&lt;br&gt;Component" style="rounded=1;whiteSpace=wrap;html=1;fontSize=12;glass=0;strokeWidth=1;shadow=0;" vertex="1" parent="WIyWlLk6GJQsqaUBKTNV-1">
          <mxGeometry x="290" y="410" width="120" height="40" as="geometry" />
        </mxCell>
        <mxCell id="0dpk0A-GW5sekWKEtVt2-37" value="" style="edgeStyle=orthogonalEdgeStyle;rounded=0;orthogonalLoop=1;jettySize=auto;html=1;" edge="1" parent="WIyWlLk6GJQsqaUBKTNV-1" source="0dpk0A-GW5sekWKEtVt2-17" target="0dpk0A-GW5sekWKEtVt2-14">
          <mxGeometry relative="1" as="geometry" />
        </mxCell>
        <mxCell id="0dpk0A-GW5sekWKEtVt2-17" value="Access&lt;br&gt;Director DB" style="shape=cylinder3;whiteSpace=wrap;html=1;boundedLbl=1;backgroundOutline=1;size=15;" vertex="1" parent="WIyWlLk6GJQsqaUBKTNV-1">
          <mxGeometry x="320" y="290" width="60" height="80" as="geometry" />
        </mxCell>
      </root>
    </mxGraphModel>
  </diagram>
</mxfile>
